<svg width="40" height="40" fill="none" xmlns="http://www.w3.org/2000/svg"><path fill-rule="evenodd" clip-rule="evenodd" d="M34 18.5c0 .3 0 1.1-.4 4.4 2.1 1 3.2 3.4 2.4 5.8l-.8 3.1c-.6 2.2-2.6 3.7-4.8 3.7-.4 0-.9-.1-1.3-.2l-1.9-.5c-.6.3-1.4.4-2.1.2-.8-.2-1.4-.7-1.8-1.4-.4-.7-.5-1.5-.3-2.3l2.4-8.7c.5-1.6 2.1-2.5 3.7-2.1.8.2 1.5.8 1.9 1.6l.7.2c.15-1.45.25-2.35.313-2.913.062-.562.087-.787.087-.887 0-2.3-.5-4.5-1.5-6.3-1 .8-2.3 1.6-3.6 1.6-.8 0-1.6-.3-2.5-1-1.3-1.1-2.8-1.7-4.4-1.7-1.6 0-3.1.6-4.4 1.7-2.3 2-4.7.4-6.1-.6-1 1.8-1.6 4-1.6 6.3 0 .053.007.14.02.294.033.424.107 1.347.18 3.406l.7-.2c.4-.8 1.1-1.4 1.9-1.6 1.6-.5 3.3.5 3.7 2.1l2.3 8.7c.2.8.1 1.6-.3 2.3-.4.7-1 1.2-1.8 1.4-.7.2-1.5.1-2.1-.2l-1.9.5c-.4.1-.9.2-1.3.2-2.2 0-4.2-1.5-4.8-3.7l-.8-3.1c-.6-2.4.5-4.8 2.6-5.8-.4-3.3-.4-4-.4-4.3C6 10.2 12 4 20 4s14 6.2 14 14.5Zm-22.2 3.9h-.3c-.4.1-.6.4-.7.8 0 .1 0 .2-.1.3l2.5 9.3c.1 0 .2 0 .3.1.3.2.6.3.9.2.3-.1.5-.3.6-.5l.038-.112c.085-.241.15-.427.062-.688l-2.3-8.7c-.2-.4-.6-.7-1-.7Zm-2.1 1.5 2.4 8.9-1.9.5c-1.6.4-3.2-.5-3.7-2.1l-.8-3.1c-.4-1.6.5-3.2 2.1-3.7l1.9-.5ZM20 9.1c2 0 4.1.8 5.7 2.2 1 .9 1.8.6 3.7-.8C27.2 7.7 23.9 6 20 6c-3.9 0-7.2 1.7-9.4 4.5 1.8 1.2 2.8 1.6 3.7.8 1.6-1.4 3.6-2.2 5.7-2.2ZM25.7 33c-.3-.1-.5-.2-.6-.5l-.038-.112c-.084-.241-.149-.427-.062-.688l2.3-8.7c.1-.5.7-.9 1.2-.7.4.1.6.4.7.7 0 .05.025.1.05.15.025.05.05.1.05.15l-2.5 9.3c-.1 0-.2.1-.3.2-.2.3-.5.3-.8.2Zm7.7-1.8.8-3.1c.5-1.6-.5-3.2-2.1-3.7l-1.9-.5-2.4 8.9 1.9.5c.8.2 1.6.1 2.3-.3.7-.4 1.2-1 1.4-1.8Z" fill="#48CCFD"/></svg>
