<svg width="40" height="40" fill="none" xmlns="http://www.w3.org/2000/svg"><path fill-rule="evenodd" clip-rule="evenodd" d="M35.5 10.4V10c0-1.7-1.3-3-3-3s-3 1.3-3 3h-2.8l-.4-1.2C25.7 7.1 24 6 22.2 6h-4.5c-1.8 0-3.4 1.1-4.1 2.8l-.4 1.2H6c-1.7 0-3 1.3-3 3v17c0 1.7 1.3 3 3 3h28c1.7 0 3-1.3 3-3V13c0-1.1-.6-2.1-1.5-2.6Zm-4-.4c0-.6.4-1 1-1s1 .4 1 1v1h-2v-1Zm-9.3-2h-4.5c-1 0-1.9.6-2.2 1.5L15 11h10l-.6-1.5C24 8.6 23.2 8 22.2 8ZM35 30c0 .6-.4 1-1 1H6c-.6 0-1-.4-1-1V13c0-.6.4-1 1-1h28.1s.1 0 .1.1c.4.1.7.5.7 1V30h.1Zm-22.1-9c0-3.9 3.2-7.1 7.1-7.1 3.9 0 7.1 3.2 7.1 7.1 0 3.9-3.2 7.1-7.1 7.1-3.9 0-7.1-3.2-7.1-7.1Zm7.1 6.1c-3.3 0-6.1-2.7-6.1-6.1 0-3.4 2.7-6.1 6.1-6.1 3.4 0 6.1 2.7 6.1 6.1 0 3.4-2.8 6.1-6.1 6.1ZM17 21c0-1.7 1.3-3 3-3s3 1.3 3 3-1.3 3-3 3-3-1.3-3-3Zm3 2c-1.1 0-2-.9-2-2s.9-2 2-2 2 .9 2 2-.9 2-2 2Zm11 5c.6 0 1-.4 1-1s-.4-1-1-1-1 .4-1 1 .4 1 1 1ZM10.5 14h-2c-.8 0-1.5.7-1.5 1.5v1c0 .8.7 1.5 1.5 1.5h2c.8 0 1.5-.7 1.5-1.5v-1c0-.8-.7-1.5-1.5-1.5Zm0 3c.3 0 .5-.2.5-.5v-1c0-.3-.2-.5-.5-.5h-2c-.3 0-.5.2-.5.5v1c0 .3.2.5.5.5h2Z" fill="#48CCFD"/></svg>
