<svg width="140" height="16" fill="none" xmlns="http://www.w3.org/2000/svg"><g clip-path="url(#a)"><path d="M15.285 9.91h-4.414c-.02.36-.11.712-.266 1.035a2.666 2.666 0 0 1-2.614 1.498c-2.12 0-3.31-1.582-3.31-4.378v-.17c0-2.817 1.256-4.377 3.25-4.377.333-.027.667.016.983.127.316.111.606.288.851.519.495.466.77 1.12.763 1.802h4.566C14.725 1.87 11.934.009 7.91.009a7.454 7.454 0 0 0-3.066.494A7.572 7.572 0 0 0 .523 4.82a7.69 7.69 0 0 0-.517 3.095v.173C.006 12.837 2.67 16 8.08 16c4.004 0 6.904-2.085 7.205-6.09Zm8.505 5.83V9.634h5.086v6.104h4.432V.246h-4.432v5.917H23.79V.246h-4.458v15.488l4.46.005Zm28.17-6.35V.247h-4.48v8.95c0 2.32-.59 3.315-2.424 3.315-1.883 0-2.425-1.061-2.425-3.25V.245h-4.43v9.209C38.197 13.79 40.683 16 45.057 16c4.264 0 6.904-2.103 6.904-6.61h-.002Zm15.175 6.35v-3.446H61.29V.245h-4.458v15.49l10.302.004ZM77.769 3.843l1.69 5.957H76.06l1.708-5.957ZM70.237 15.74h4.136l.822-2.882h5.129l.822 2.88h4.696L80.93.255h-5.735l-4.958 15.487v-.002Zm23.585 0V9.26l4.458 6.48h5.128l-5.963-8.3 5.669-7.195h-4.636L93.824 6.38V.246h-4.456v15.488l4.453.007Zm27.739-7.757v-.173c0-4.813-3.477-7.781-8.197-7.781a7.63 7.63 0 0 0-3.117.46 7.744 7.744 0 0 0-4.465 4.303 7.871 7.871 0 0 0-.597 3.13v.172c.002 4.653 3.117 7.905 8.117 7.905 4.994.001 8.259-3.25 8.259-8.016Zm-11.75.086v-.174c0-2.818 1.362-4.398 3.544-4.398 2.181 0 3.573 1.625 3.573 4.378v.172c.013 2.773-1.353 4.463-3.54 4.463-2.148 0-3.578-1.625-3.578-4.44h.001Zm19.081 7.67h5.033L138.996.255h-4.154l-3.163 10.87-3.138-10.87h-4.771l5.122 15.487Z" fill="#fff"/></g><defs><clipPath id="a"><path fill="#fff" d="M0 0h140v16H0z"/></clipPath></defs></svg>
